# xmcd CD database file
#
# Track frame offsets:
#	150
#	64132
#	105833
#	150943
#	200602
#
# Disc length: 3450 seconds
#
# Revision: 0
# Processed by: cddbd v1.5.2PL0 Copyright (c) Steve Scherf et al.
# Submitted via: CDex 1.51
#
DISCID=330d7805
DTITLE=Michael Brecker - Michael Brecker Rhode Island 1987/8/16
DYEAR=1987
DGENRE=Jazz
TTITLE0=Nothing Personal
TTITLE1=Choices
TTITLE2=Upside Downside
TTITLE3=My One And Only Love
TTITLE4=Syzygy
EXTD=YEAR: 1987
EXTT0=
EXTT1=
EXTT2=
EXTT3=
EXTT4=
PLAYORDER=
